<svg width="64" height="60" viewBox="0 0 64 60" fill="none" xmlns="http://www.w3.org/2000/svg">
<g id="teacher-at-the-blackboard 1">
<g clip-path="url(#clip0_19_418)">
<g id="Group">
<path id="Vector" d="M34.6721 22.9602C35.0506 22.9602 35.4155 23.0174 35.7668 23.1129L42.3215 15.5474C42.7405 15.0639 43.5176 14.9748 44.0244 15.382C44.5177 15.7701 44.5853 16.4637 44.1731 16.9345L37.6927 24.4173C38.1319 24.9899 38.3955 25.6963 38.3955 26.4598C38.3955 27.8788 37.49 29.1068 36.1993 29.6539H61.6274C62.5599 29.6539 63.3168 28.9414 63.3168 28.0632V7.9247C63.3168 7.04663 62.5599 6.33398 61.6274 6.33398H29.327C28.3945 6.33398 27.6377 7.04663 27.6377 7.9247V21.1468L29.1649 22.9665H34.6721V22.9602Z" fill="#8A288E"/>
<path id="Vector_2" d="M13.6022 14.2685C17.4238 14.2685 20.5218 11.3513 20.5218 7.75289C20.5218 4.15443 17.4238 1.2373 13.6022 1.2373C9.78062 1.2373 6.68262 4.15443 6.68262 7.75289C6.68262 11.3513 9.78062 14.2685 13.6022 14.2685Z" fill="#8A288E"/>
<g id="Group_2">
<path id="Vector_3" d="M20.6979 56.7915C20.6979 57.6697 19.9411 58.3823 19.0086 58.3823H16.1705C15.2379 58.3823 14.4811 57.6697 14.4811 56.7915V43.455C14.4811 42.9841 14.0757 42.6023 13.5756 42.6023C13.0756 42.6023 12.6701 42.9841 12.6701 43.455V56.7279C12.6701 57.6379 11.8795 58.3823 10.9132 58.3823H8.13591C7.20339 58.3823 6.44656 57.6697 6.44656 56.7915L6.43304 24.5954C6.43304 24.1627 6.06139 23.8065 5.59513 23.8065C5.13562 23.8065 4.75721 24.1564 4.75721 24.5954V36.9776C4.75721 37.8556 4.00038 38.5683 3.06786 38.5683H1.68935C0.756829 38.5683 0 37.8556 0 36.9776V20.0014C0 17.9844 1.73665 16.3555 3.87199 16.3555H19.2586C20.9073 16.3555 22.4684 17.0681 23.4955 18.2834L27.6309 23.1956L28.5026 24.2327C28.5026 24.2327 32.4219 24.2327 34.6789 24.2391C35.6114 24.2391 36.3683 24.9517 36.3683 25.8298V27.096C36.3683 27.9741 35.6114 28.6867 34.6789 28.6867H27.3675C26.6444 28.6867 25.9619 28.3749 25.5159 27.8404L22.4346 24.1118C22.2791 23.9209 22.0291 23.8063 21.7723 23.8063H21.5629C21.1034 23.8063 20.725 24.1563 20.725 24.5953L20.6979 56.7915Z" fill="#8A288E"/>
</g>
</g>
</g>
</g>
<defs>
<clipPath id="clip0_19_418">
<rect width="63.3168" height="59.6202" rx="10" fill="white"/>
</clipPath>
</defs>
</svg>
